# MagicaVoxel @ Ephtracy

# group
o 

# material
mtllib Brod.mtl
usemtl palette

# normals
vn -1 0 0
vn 1 0 0
vn 0 0 1
vn 0 0 -1
vn 0 -1 0
vn 0 1 0

# texcoords
vt 0.0332031 0.5
vt 0.0644531 0.5
vt 0.373047 0.5

# verts
v -0.6 0 -0.1
v -0.6 0 -0.5
v -0.6 0.1 -0.1
v -0.6 0.1 -0.5
v -0.5 0 0.5
v -0.5 0 -0.1
v -0.5 0 -0.5
v -0.5 0 -0.6
v -0.5 0.1 0.5
v -0.5 0.1 -0.1
v -0.5 0.1 -0.5
v -0.5 0.1 -0.6
v -0.4 0 0.6
v -0.4 0 0.5
v -0.4 0.1 0.6
v -0.4 0.1 0.5
v -0.3 0 0.7
v -0.3 0 0.6
v -0.3 0 -0.2
v -0.3 0 -0.4
v -0.3 0 -0.6
v -0.3 0 -0.7
v -0.3 0.1 0.7
v -0.3 0.1 0.6
v -0.3 0.1 -0.2
v -0.3 0.1 -0.4
v -0.3 0.1 -0.6
v -0.3 0.1 -0.7
v 0.4 0 0.4
v 0.4 0 0.2
v 0.4 0.1 0.4
v 0.4 0.1 0.2
v -0.4 0 -0.2
v -0.4 0 -0.4
v -0.4 0.1 -0.2
v -0.4 0.1 -0.4
v 0.3 0 0.4
v 0.3 0 0.2
v 0.3 0.1 0.4
v 0.3 0.1 0.2
v 0.4 0 0.7
v 0.4 0 0.6
v 0.4 0 -0.6
v 0.4 0 -0.7
v 0.4 0.1 0.7
v 0.4 0.1 0.6
v 0.4 0.1 -0.6
v 0.4 0.1 -0.7
v 0.5 0 0.6
v 0.5 0 0.5
v 0.5 0.1 0.6
v 0.5 0.1 0.5
v 0.6 0 0.5
v 0.6 0 -0.1
v 0.6 0 -0.5
v 0.6 0 -0.6
v 0.6 0.1 0.5
v 0.6 0.1 -0.1
v 0.6 0.1 -0.5
v 0.6 0.1 -0.6
v 0.7 0 -0.1
v 0.7 0 -0.5
v 0.7 0.1 -0.1
v 0.7 0.1 -0.5
v -0.3 0 0.7
v -0.3 0.1 0.7
v 0.4 0 0.7
v 0.4 0.1 0.7
v -0.4 0 0.6
v -0.4 0.1 0.6
v -0.3 0 0.6
v -0.3 0.1 0.6
v 0.4 0 0.6
v 0.4 0.1 0.6
v 0.5 0 0.6
v 0.5 0.1 0.6
v -0.5 0 0.5
v -0.5 0.1 0.5
v -0.4 0 0.5
v -0.4 0.1 0.5
v 0.5 0 0.5
v 0.5 0.1 0.5
v 0.6 0 0.5
v 0.6 0.1 0.5
v 0.3 0 0.2
v 0.3 0.1 0.2
v 0.4 0 0.2
v 0.4 0.1 0.2
v -0.6 0 -0.1
v -0.6 0.1 -0.1
v -0.5 0 -0.1
v -0.5 0.1 -0.1
v 0.6 0 -0.1
v 0.6 0.1 -0.1
v 0.7 0 -0.1
v 0.7 0.1 -0.1
v -0.4 0 -0.4
v -0.4 0.1 -0.4
v -0.3 0 -0.4
v -0.3 0.1 -0.4
v 0.3 0 0.4
v 0.3 0.1 0.4
v 0.4 0 0.4
v 0.4 0.1 0.4
v -0.4 0 -0.2
v -0.4 0.1 -0.2
v -0.3 0 -0.2
v -0.3 0.1 -0.2
v -0.6 0 -0.5
v -0.6 0.1 -0.5
v -0.5 0 -0.5
v -0.5 0.1 -0.5
v 0.6 0 -0.5
v 0.6 0.1 -0.5
v 0.7 0 -0.5
v 0.7 0.1 -0.5
v -0.5 0 -0.6
v -0.5 0.1 -0.6
v -0.3 0 -0.6
v -0.3 0.1 -0.6
v 0.4 0 -0.6
v 0.4 0.1 -0.6
v 0.6 0 -0.6
v 0.6 0.1 -0.6
v -0.3 0 -0.7
v -0.3 0.1 -0.7
v 0.4 0 -0.7
v 0.4 0.1 -0.7
v -0.3 0 0.7
v 0.4 0 0.7
v -0.4 0 0.6
v -0.3 0 0.6
v 0.4 0 0.6
v 0.5 0 0.6
v -0.5 0 0.5
v -0.4 0 0.5
v -0.3 0 0.5
v 0.4 0 0.5
v 0.5 0 0.5
v 0.6 0 0.5
v -0.2 0 0.4
v -0.1 0 0.4
v 0.1 0 0.4
v 0.2 0 0.4
v 0.3 0 0.4
v 0.4 0 0.4
v -0.2 0 0.3
v -0.1 0 0.3
v 0.1 0 0.3
v 0.2 0 0.3
v 0.3 0 0.2
v 0.4 0 0.2
v -0.3 0 0.1
v -0.2 0 0.1
v -0.3 0 0
v -0.2 0 0
v -0.6 0 -0.1
v -0.5 0 -0.1
v -0.4 0 -0.1
v 0 0 -0.1
v 0.1 0 -0.1
v 0.5 0 -0.1
v 0.6 0 -0.1
v 0.7 0 -0.1
v -0.4 0 -0.2
v -0.3 0 -0.2
v -0.2 0 -0.2
v -0.1 0 -0.2
v 0 0 -0.2
v 0.1 0 -0.2
v 0.4 0 -0.2
v 0.5 0 -0.2
v -0.2 0 -0.3
v -0.1 0 -0.3
v 0.4 0 -0.3
v 0.5 0 -0.3
v -0.4 0 -0.4
v -0.3 0 -0.4
v -0.1 0 -0.4
v 0 0 -0.4
v -0.6 0 -0.5
v -0.5 0 -0.5
v -0.3 0 -0.5
v -0.1 0 -0.5
v 0 0 -0.5
v 0.4 0 -0.5
v 0.6 0 -0.5
v 0.7 0 -0.5
v -0.5 0 -0.6
v -0.3 0 -0.6
v 0.4 0 -0.6
v 0.6 0 -0.6
v -0.3 0 -0.7
v 0.4 0 -0.7
v -0.3 0.1 0.7
v 0.4 0.1 0.7
v -0.4 0.1 0.6
v -0.3 0.1 0.6
v 0.4 0.1 0.6
v 0.5 0.1 0.6
v -0.5 0.1 0.5
v -0.4 0.1 0.5
v -0.3 0.1 0.5
v 0.4 0.1 0.5
v 0.5 0.1 0.5
v 0.6 0.1 0.5
v -0.2 0.1 0.4
v -0.1 0.1 0.4
v 0.1 0.1 0.4
v 0.2 0.1 0.4
v 0.3 0.1 0.4
v 0.4 0.1 0.4
v -0.2 0.1 0.3
v -0.1 0.1 0.3
v 0.1 0.1 0.3
v 0.2 0.1 0.3
v 0.3 0.1 0.2
v 0.4 0.1 0.2
v -0.3 0.1 0.1
v -0.2 0.1 0.1
v -0.3 0.1 0
v -0.2 0.1 0
v -0.6 0.1 -0.1
v -0.5 0.1 -0.1
v -0.4 0.1 -0.1
v 0 0.1 -0.1
v 0.1 0.1 -0.1
v 0.5 0.1 -0.1
v 0.6 0.1 -0.1
v 0.7 0.1 -0.1
v -0.4 0.1 -0.2
v -0.3 0.1 -0.2
v -0.2 0.1 -0.2
v -0.1 0.1 -0.2
v 0 0.1 -0.2
v 0.1 0.1 -0.2
v 0.4 0.1 -0.2
v 0.5 0.1 -0.2
v -0.2 0.1 -0.3
v -0.1 0.1 -0.3
v 0.4 0.1 -0.3
v 0.5 0.1 -0.3
v -0.4 0.1 -0.4
v -0.3 0.1 -0.4
v -0.1 0.1 -0.4
v 0 0.1 -0.4
v -0.6 0.1 -0.5
v -0.5 0.1 -0.5
v -0.3 0.1 -0.5
v -0.1 0.1 -0.5
v 0 0.1 -0.5
v 0.4 0.1 -0.5
v 0.6 0.1 -0.5
v 0.7 0.1 -0.5
v -0.5 0.1 -0.6
v -0.3 0.1 -0.6
v 0.4 0.1 -0.6
v 0.6 0.1 -0.6
v -0.3 0.1 -0.7
v 0.4 0.1 -0.7

# faces
f 3/3/1 2/3/1 1/3/1
f 4/3/1 2/3/1 3/3/1
f 9/3/1 6/3/1 5/3/1
f 10/3/1 6/3/1 9/3/1
f 11/3/1 8/3/1 7/3/1
f 12/3/1 8/3/1 11/3/1
f 15/3/1 14/3/1 13/3/1
f 16/3/1 14/3/1 15/3/1
f 23/3/1 18/3/1 17/3/1
f 24/3/1 18/3/1 23/3/1
f 25/1/1 20/1/1 19/1/1
f 26/1/1 20/1/1 25/1/1
f 27/3/1 22/3/1 21/3/1
f 28/3/1 22/3/1 27/3/1
f 31/1/1 30/1/1 29/1/1
f 32/1/1 30/1/1 31/1/1
f 33/1/2 34/1/2 35/1/2
f 35/1/2 34/1/2 36/1/2
f 37/1/2 38/1/2 39/1/2
f 39/1/2 38/1/2 40/1/2
f 41/3/2 42/3/2 45/3/2
f 45/3/2 42/3/2 46/3/2
f 43/3/2 44/3/2 47/3/2
f 47/3/2 44/3/2 48/3/2
f 49/3/2 50/3/2 51/3/2
f 51/3/2 50/3/2 52/3/2
f 53/3/2 54/3/2 57/3/2
f 57/3/2 54/3/2 58/3/2
f 55/3/2 56/3/2 59/3/2
f 59/3/2 56/3/2 60/3/2
f 61/3/2 62/3/2 63/3/2
f 63/3/2 62/3/2 64/3/2
f 67/3/3 66/3/3 65/3/3
f 68/3/3 66/3/3 67/3/3
f 71/3/3 70/3/3 69/3/3
f 72/3/3 70/3/3 71/3/3
f 75/3/3 74/3/3 73/3/3
f 76/3/3 74/3/3 75/3/3
f 79/3/3 78/3/3 77/3/3
f 80/3/3 78/3/3 79/3/3
f 83/3/3 82/3/3 81/3/3
f 84/3/3 82/3/3 83/3/3
f 87/1/3 86/1/3 85/1/3
f 88/1/3 86/1/3 87/1/3
f 91/3/3 90/3/3 89/3/3
f 92/3/3 90/3/3 91/3/3
f 95/3/3 94/3/3 93/3/3
f 96/3/3 94/3/3 95/3/3
f 99/1/3 98/1/3 97/1/3
f 100/1/3 98/1/3 99/1/3
f 101/1/4 102/1/4 103/1/4
f 103/1/4 102/1/4 104/1/4
f 105/1/4 106/1/4 107/1/4
f 107/1/4 106/1/4 108/1/4
f 109/3/4 110/3/4 111/3/4
f 111/3/4 110/3/4 112/3/4
f 113/3/4 114/3/4 115/3/4
f 115/3/4 114/3/4 116/3/4
f 117/3/4 118/3/4 119/3/4
f 119/3/4 118/3/4 120/3/4
f 121/3/4 122/3/4 123/3/4
f 123/3/4 122/3/4 124/3/4
f 125/3/4 126/3/4 127/3/4
f 127/3/4 126/3/4 128/3/4
f 132/3/5 130/3/5 129/3/5
f 133/3/5 130/3/5 132/3/5
f 136/3/5 132/3/5 131/3/5
f 137/1/5 133/1/5 132/1/5
f 137/3/5 132/3/5 136/3/5
f 138/3/5 134/3/5 133/3/5
f 138/1/5 133/1/5 137/1/5
f 139/3/5 134/3/5 138/3/5
f 141/1/5 137/1/5 136/1/5
f 141/1/5 138/1/5 137/1/5
f 141/1/5 139/1/5 138/1/5
f 142/1/5 139/1/5 141/1/5
f 143/1/5 139/1/5 142/1/5
f 144/1/5 139/1/5 143/1/5
f 145/1/5 139/1/5 144/1/5
f 146/1/5 139/1/5 145/1/5
f 147/1/5 141/1/5 136/1/5
f 147/2/5 142/2/5 141/2/5
f 148/1/5 143/1/5 142/1/5
f 148/2/5 142/2/5 147/2/5
f 149/2/5 144/2/5 143/2/5
f 149/1/5 143/1/5 148/1/5
f 150/1/5 145/1/5 144/1/5
f 150/2/5 144/2/5 149/2/5
f 151/1/5 149/1/5 148/1/5
f 151/1/5 145/1/5 150/1/5
f 151/1/5 150/1/5 149/1/5
f 151/1/5 148/1/5 147/1/5
f 152/1/5 139/1/5 146/1/5
f 153/1/5 151/1/5 147/1/5
f 153/1/5 152/1/5 151/1/5
f 153/1/5 147/1/5 136/1/5
f 154/1/5 152/1/5 153/1/5
f 155/1/5 153/1/5 136/1/5
f 155/2/5 154/2/5 153/2/5
f 156/1/5 152/1/5 154/1/5
f 156/2/5 154/2/5 155/2/5
f 158/3/5 136/3/5 135/3/5
f 159/1/5 155/1/5 136/1/5
f 159/1/5 156/1/5 155/1/5
f 159/3/5 136/3/5 158/3/5
f 160/1/5 152/1/5 156/1/5
f 160/1/5 156/1/5 159/1/5
f 161/1/5 152/1/5 160/1/5
f 162/3/5 140/3/5 139/3/5
f 162/1/5 152/1/5 161/1/5
f 162/1/5 139/1/5 152/1/5
f 163/3/5 140/3/5 162/3/5
f 165/1/5 159/1/5 158/1/5
f 165/1/5 160/1/5 159/1/5
f 166/1/5 160/1/5 165/1/5
f 167/1/5 160/1/5 166/1/5
f 168/1/5 160/1/5 167/1/5
f 169/2/5 161/2/5 160/2/5
f 169/1/5 160/1/5 168/1/5
f 170/1/5 163/1/5 162/1/5
f 170/2/5 161/2/5 169/2/5
f 170/1/5 162/1/5 161/1/5
f 171/1/5 163/1/5 170/1/5
f 172/1/5 163/1/5 171/1/5
f 173/2/5 168/2/5 167/2/5
f 173/1/5 167/1/5 166/1/5
f 174/1/5 169/1/5 168/1/5
f 174/2/5 168/2/5 173/2/5
f 174/1/5 171/1/5 170/1/5
f 174/1/5 170/1/5 169/1/5
f 175/2/5 172/2/5 171/2/5
f 175/1/5 171/1/5 174/1/5
f 176/1/5 163/1/5 172/1/5
f 176/2/5 172/2/5 175/2/5
f 177/1/5 165/1/5 158/1/5
f 178/1/5 175/1/5 174/1/5
f 178/1/5 173/1/5 166/1/5
f 178/1/5 176/1/5 175/1/5
f 178/1/5 174/1/5 173/1/5
f 179/1/5 176/1/5 178/1/5
f 180/1/5 176/1/5 179/1/5
f 181/3/5 158/3/5 157/3/5
f 182/1/5 177/1/5 158/1/5
f 182/3/5 158/3/5 181/3/5
f 182/1/5 178/1/5 177/1/5
f 182/1/5 179/1/5 178/1/5
f 183/1/5 179/1/5 182/1/5
f 184/2/5 180/2/5 179/2/5
f 184/1/5 179/1/5 183/1/5
f 185/1/5 176/1/5 180/1/5
f 185/2/5 180/2/5 184/2/5
f 186/1/5 176/1/5 185/1/5
f 187/3/5 164/3/5 163/3/5
f 187/1/5 176/1/5 186/1/5
f 187/1/5 163/1/5 176/1/5
f 188/3/5 164/3/5 187/3/5
f 189/3/5 183/3/5 182/3/5
f 190/1/5 186/1/5 185/1/5
f 190/3/5 183/3/5 189/3/5
f 190/1/5 185/1/5 184/1/5
f 190/1/5 184/1/5 183/1/5
f 191/3/5 187/3/5 186/3/5
f 191/1/5 186/1/5 190/1/5
f 192/3/5 187/3/5 191/3/5
f 193/3/5 191/3/5 190/3/5
f 194/3/5 191/3/5 193/3/5
f 195/3/6 196/3/6 198/3/6
f 198/3/6 196/3/6 199/3/6
f 197/3/6 198/3/6 202/3/6
f 198/1/6 199/1/6 203/1/6
f 202/3/6 198/3/6 203/3/6
f 199/3/6 200/3/6 204/3/6
f 203/1/6 199/1/6 204/1/6
f 204/3/6 200/3/6 205/3/6
f 202/1/6 203/1/6 207/1/6
f 203/1/6 204/1/6 207/1/6
f 204/1/6 205/1/6 207/1/6
f 207/1/6 205/1/6 208/1/6
f 208/1/6 205/1/6 209/1/6
f 209/1/6 205/1/6 210/1/6
f 210/1/6 205/1/6 211/1/6
f 211/1/6 205/1/6 212/1/6
f 202/1/6 207/1/6 213/1/6
f 207/2/6 208/2/6 213/2/6
f 208/1/6 209/1/6 214/1/6
f 213/2/6 208/2/6 214/2/6
f 209/2/6 210/2/6 215/2/6
f 214/1/6 209/1/6 215/1/6
f 210/1/6 211/1/6 216/1/6
f 215/2/6 210/2/6 216/2/6
f 214/1/6 215/1/6 217/1/6
f 216/1/6 211/1/6 217/1/6
f 215/1/6 216/1/6 217/1/6
f 213/1/6 214/1/6 217/1/6
f 212/1/6 205/1/6 218/1/6
f 213/1/6 217/1/6 219/1/6
f 217/1/6 218/1/6 219/1/6
f 202/1/6 213/1/6 219/1/6
f 219/1/6 218/1/6 220/1/6
f 202/1/6 219/1/6 221/1/6
f 219/2/6 220/2/6 221/2/6
f 220/1/6 218/1/6 222/1/6
f 221/2/6 220/2/6 222/2/6
f 201/3/6 202/3/6 224/3/6
f 202/1/6 221/1/6 225/1/6
f 221/1/6 222/1/6 225/1/6
f 224/3/6 202/3/6 225/3/6
f 222/1/6 218/1/6 226/1/6
f 225/1/6 222/1/6 226/1/6
f 226/1/6 218/1/6 227/1/6
f 205/3/6 206/3/6 228/3/6
f 227/1/6 218/1/6 228/1/6
f 218/1/6 205/1/6 228/1/6
f 228/3/6 206/3/6 229/3/6
f 224/1/6 225/1/6 231/1/6
f 225/1/6 226/1/6 231/1/6
f 231/1/6 226/1/6 232/1/6
f 232/1/6 226/1/6 233/1/6
f 233/1/6 226/1/6 234/1/6
f 226/2/6 227/2/6 235/2/6
f 234/1/6 226/1/6 235/1/6
f 228/1/6 229/1/6 236/1/6
f 235/2/6 227/2/6 236/2/6
f 227/1/6 228/1/6 236/1/6
f 236/1/6 229/1/6 237/1/6
f 237/1/6 229/1/6 238/1/6
f 233/2/6 234/2/6 239/2/6
f 232/1/6 233/1/6 239/1/6
f 234/1/6 235/1/6 240/1/6
f 239/2/6 234/2/6 240/2/6
f 236/1/6 237/1/6 240/1/6
f 235/1/6 236/1/6 240/1/6
f 237/2/6 238/2/6 241/2/6
f 240/1/6 237/1/6 241/1/6
f 238/1/6 229/1/6 242/1/6
f 241/2/6 238/2/6 242/2/6
f 224/1/6 231/1/6 243/1/6
f 240/1/6 241/1/6 244/1/6
f 232/1/6 239/1/6 244/1/6
f 241/1/6 242/1/6 244/1/6
f 239/1/6 240/1/6 244/1/6
f 244/1/6 242/1/6 245/1/6
f 245/1/6 242/1/6 246/1/6
f 223/3/6 224/3/6 247/3/6
f 224/1/6 243/1/6 248/1/6
f 247/3/6 224/3/6 248/3/6
f 243/1/6 244/1/6 248/1/6
f 244/1/6 245/1/6 248/1/6
f 248/1/6 245/1/6 249/1/6
f 245/2/6 246/2/6 250/2/6
f 249/1/6 245/1/6 250/1/6
f 246/1/6 242/1/6 251/1/6
f 250/2/6 246/2/6 251/2/6
f 251/1/6 242/1/6 252/1/6
f 229/3/6 230/3/6 253/3/6
f 252/1/6 242/1/6 253/1/6
f 242/1/6 229/1/6 253/1/6
f 253/3/6 230/3/6 254/3/6
f 248/3/6 249/3/6 255/3/6
f 251/1/6 252/1/6 256/1/6
f 255/3/6 249/3/6 256/3/6
f 250/1/6 251/1/6 256/1/6
f 249/1/6 250/1/6 256/1/6
f 252/3/6 253/3/6 257/3/6
f 256/1/6 252/1/6 257/1/6
f 257/3/6 253/3/6 258/3/6
f 256/3/6 257/3/6 259/3/6
f 259/3/6 257/3/6 260/3/6
